<?xml version="1.0" encoding="UTF-8" standalone="no"?>
<!-- Created with Inkscape (http://www.inkscape.org/) -->

<svg
   width="210mm"
   height="297mm"
   viewBox="0 0 210 297"
   version="1.1"
   id="svg5"
   inkscape:version="1.1.1 (3bf5ae0, 2021-09-20)"
   sodipodi:docname="ferric.svg"
   xmlns:inkscape="http://www.inkscape.org/namespaces/inkscape"
   xmlns:sodipodi="http://sodipodi.sourceforge.net/DTD/sodipodi-0.dtd"
   xmlns="http://www.w3.org/2000/svg"
   xmlns:svg="http://www.w3.org/2000/svg">
  <sodipodi:namedview
     id="namedview7"
     pagecolor="#505050"
     bordercolor="#eeeeee"
     borderopacity="1"
     inkscape:pageshadow="0"
     inkscape:pageopacity="0"
     inkscape:pagecheckerboard="0"
     inkscape:document-units="mm"
     showgrid="false"
     inkscape:zoom="0.70710678"
     inkscape:cx="659.73063"
     inkscape:cy="498.51028"
     inkscape:window-width="1916"
     inkscape:window-height="1056"
     inkscape:window-x="0"
     inkscape:window-y="20"
     inkscape:window-maximized="1"
     inkscape:current-layer="layer1" />
  <defs
     id="defs2">
    <rect
       x="332.5161"
       y="346.52427"
       width="85.638641"
       height="69.394736"
       id="rect95531" />
    <rect
       x="335.70102"
       y="341.78816"
       width="78.718283"
       height="69.525074"
       id="rect19467" />
  </defs>
  <g
     inkscape:label="Layer 1"
     inkscape:groupmode="layer"
     id="layer1">
    <path
       id="path1000"
       style="font-variation-settings:normal;opacity:1;vector-effect:none;fill:#322d31;fill-opacity:1;fill-rule:evenodd;stroke:none;stroke-width:1.1603;stroke-linecap:butt;stroke-linejoin:miter;stroke-miterlimit:4;stroke-dasharray:none;stroke-dashoffset:0;stroke-opacity:0.959101;-inkscape-stroke:none;stop-color:#000000;stop-opacity:1"
       d="M 376.15625 21.083984 A 162.5726 355.05096 0 0 0 214.09961 376.88281 A 162.5726 355.05096 0 0 0 376.84375 731.18359 A 162.5726 355.05096 0 0 0 539.24414 376.13281 L 539.24219 374.63477 A 162.5726 355.05096 0 0 0 376.15625 21.083984 z M 376.17188 37.113281 A 157.88986 339.02234 0 0 1 534.56055 374.70117 L 534.56055 376.13281 A 157.88986 339.02234 0 0 1 376.83789 715.15625 A 157.88986 339.02234 0 0 1 218.78125 376.84961 A 157.88986 339.02234 0 0 1 376.17188 37.113281 z "
       transform="scale(0.26458333)" />
    <path
       id="path2603"
       style="font-variation-settings:normal;opacity:1;vector-effect:none;fill:#322d31;fill-opacity:1;fill-rule:evenodd;stroke:none;stroke-width:0.306996;stroke-linecap:butt;stroke-linejoin:miter;stroke-miterlimit:4;stroke-dasharray:none;stroke-dashoffset:0;stroke-opacity:0.959101;-inkscape-stroke:none;stop-color:#000000;stop-opacity:1"
       d="M 181.54158,53.471511 A 43.014,93.940565 60.731146 0 0 78.458147,62.093036 43.014,93.940565 60.731146 0 0 17.735726,145.48654 43.014,93.940565 60.731146 0 0 120.69097,137.04112 l 0.34551,-0.19423 a 43.014,93.940565 60.731146 0 0 60.5051,-83.375379 z m -3.69763,2.077108 a 41.775025,89.69966 60.731146 0 1 -57.4284,80.226311 l -0.33043,0.18519 a 41.775025,89.69966 60.731146 0 1 -98.650959,7.45182 41.775025,89.69966 60.731146 0 1 57.637252,-80.242651 41.775025,89.69966 60.731146 0 1 98.772537,-7.62067 z" />
    <path
       id="path2605"
       style="font-variation-settings:normal;opacity:1;vector-effect:none;fill:#322d31;fill-opacity:1;fill-rule:evenodd;stroke:none;stroke-width:0.306996;stroke-linecap:butt;stroke-linejoin:miter;stroke-miterlimit:4;stroke-dasharray:none;stroke-dashoffset:0;stroke-opacity:0.959101;-inkscape-stroke:none;stop-color:#000000;stop-opacity:1"
       d="M 17.780448,53.471511 A 93.940565,43.014 29.268854 0 1 120.86388,62.093036 93.940565,43.014 29.268854 0 1 181.5863,145.48654 93.940565,43.014 29.268854 0 1 78.631058,137.04112 l -0.34551,-0.19423 a 93.940565,43.014 29.268854 0 1 -60.5051,-83.375379 z m 3.69763,2.077108 a 89.69966,41.775025 29.268854 0 0 57.4284,80.226311 l 0.33043,0.18519 a 89.69966,41.775025 29.268854 0 0 98.650962,7.45182 89.69966,41.775025 29.268854 0 0 -57.63726,-80.242651 89.69966,41.775025 29.268854 0 0 -98.772532,-7.62067 z" />
    <path
       style="font-variation-settings:normal;opacity:1;vector-effect:none;fill:#adadc9;fill-opacity:1;fill-rule:evenodd;stroke:none;stroke-width:1.1603;stroke-linecap:butt;stroke-linejoin:miter;stroke-miterlimit:4;stroke-dasharray:none;stroke-dashoffset:0;stroke-opacity:0.959101;-inkscape-stroke:none;stop-color:#000000;stop-opacity:1"
       id="path2629"
       sodipodi:type="arc"
       sodipodi:cx="99.380775"
       sodipodi:cy="99.262558"
       sodipodi:rx="20"
       sodipodi:ry="20"
       sodipodi:start="0"
       sodipodi:end="6.2789616"
       sodipodi:open="true"
       sodipodi:arc-type="arc"
       d="M 119.38078,99.262558 A 20,20 0 0 1 99.401894,119.26255 20,20 0 0 1 79.38082,99.304795 20,20 0 0 1 99.31742,79.262658 20,20 0 0 1 119.3806,99.178084" />
    <text
       xml:space="preserve"
       transform="scale(0.26458333)"
       id="text95529"
       style="font-size:60.4724px;line-height:1.25;font-family:monospace;-inkscape-font-specification:monospace;white-space:pre;shape-inside:url(#rect95531);text-align:center"
       x="31.181103"
       y="0"><tspan
         x="338.9275"
         y="400.02734"
         id="tspan145133">Fe</tspan></text>
    <text
       xml:space="preserve"
       style="font-size:10.5833px;line-height:1.25;font-family:monospace;-inkscape-font-specification:monospace;stroke-width:0.264583"
       x="108.70767"
       y="93.036255"
       id="text129993"><tspan
         sodipodi:role="line"
         id="tspan129991"
         style="stroke-width:0.264583"
         x="108.70767"
         y="93.036255" /></text>
  </g>
</svg>
