<?xml version="1.0" encoding="UTF-8" standalone="no"?>
<!-- Created with Inkscape (http://www.inkscape.org/) -->

<svg
   version="1.1"
   id="svg9"
   xml:space="preserve"
   width="666.66669"
   height="666.66669"
   viewBox="0 0 666.66669 666.66669"
   sodipodi:docname="479844-PGZQA0-865.svg"
   inkscape:version="1.1.1 (3bf5ae0d25, 2021-09-20)"
   xmlns:inkscape="http://www.inkscape.org/namespaces/inkscape"
   xmlns:sodipodi="http://sodipodi.sourceforge.net/DTD/sodipodi-0.dtd"
   xmlns="http://www.w3.org/2000/svg"
   xmlns:svg="http://www.w3.org/2000/svg"><defs
     id="defs13"><clipPath
       clipPathUnits="userSpaceOnUse"
       id="clipPath23"><path
         d="M 0,500 H 500 V 0 H 0 Z"
         id="path21" /></clipPath><clipPath
       clipPathUnits="userSpaceOnUse"
       id="clipPath151"><path
         d="M 0,500 H 500 V 0 H 0 Z"
         id="path149" /></clipPath></defs><sodipodi:namedview
     id="namedview11"
     pagecolor="#ffffff"
     bordercolor="#666666"
     borderopacity="1.0"
     inkscape:pageshadow="2"
     inkscape:pageopacity="0.0"
     inkscape:pagecheckerboard="0"
     showgrid="false"
     inkscape:zoom="1.1745"
     inkscape:cx="560.66413"
     inkscape:cy="457.64156"
     inkscape:window-width="1920"
     inkscape:window-height="1001"
     inkscape:window-x="-9"
     inkscape:window-y="-9"
     inkscape:window-maximized="1"
     inkscape:current-layer="g15" /><g
     id="g15"
     inkscape:groupmode="layer"
     inkscape:label="479844-PGZQA0-865"
     transform="matrix(1.3333333,0,0,-1.3333333,0,666.66667)"><g
       id="g17"><g
         id="g19"
         clip-path="url(#clipPath23)"><g
           id="g25"
           transform="translate(343.2758,264.9885)"><path
             d="m 0,0 c 1.242,1.609 8.091,3.473 9.078,3.652 0.986,0.178 6.419,-0.891 7.043,-1.069 0.623,-0.178 6.59,-9.441 7.214,-10.777 0.623,-1.336 -6.858,-10.242 -8.461,-12.825 -1.603,-2.583 -5.968,-4.899 -7.66,-4.453 -1.692,0.445 -10.331,2.761 -10.688,3.74 -0.356,0.98 -2.315,6.235 -2.048,7.482 0.267,1.247 2.138,3.919 2.138,4.453 0,0.534 2.802,9.043 3.384,9.797"
             style="fill:#3a3a3a;fill-opacity:1;fill-rule:nonzero;stroke:none"
             id="path27" /></g><g
           id="g29"
           transform="translate(214.195,68.5529)"><path
             d="m 0,0 c -3.199,2.583 -4.391,7.814 -4.896,9.15 -0.505,1.336 0.282,4.698 0.238,4.966 -0.045,0.267 -0.238,2.01 -0.238,2.01 0,0 -0.01,0.004 -0.011,0.005 -1.732,-4.447 -9.483,-3.345 -13.79,-2.297 -3.607,0.877 -9.897,5.232 -9.288,9.465 0.024,0.166 0.058,0.394 0.096,0.649 v 0 c -1.454,-1.79 -4.367,-10.448 -4.869,-12.051 -0.502,-1.603 2.883,-11.355 4.258,-14.73 1.127,-2.766 4.083,-6.542 5.625,-8.292 1.008,-1.144 2.125,-1.875 11.759,-2.325 11.664,-0.544 15.149,1.963 15.416,3.21 0.318,1.483 0.801,4.898 0.533,6.323 C 4.566,-2.492 3.199,-2.583 0,0"
             style="fill:#3a3a3a;fill-opacity:1;fill-rule:nonzero;stroke:none"
             id="path31" /></g><g
           id="g33"
           transform="translate(171.9426,250.883)"><path
             d="M 0,0 V 0 C 0.082,3.057 0.498,10.121 1.039,17.887 L -42.064,86.644 -46.339,81.656 -0.063,-0.373 C -0.023,-0.14 0,0 0,0"
             style="fill:#3a3a3a;fill-opacity:1;fill-rule:nonzero;stroke:none"
             id="path35" /></g><g
           id="g37"
           transform="translate(332.6095,379.5356)"><path
             d="m 0,0 c -1.731,2.693 -9.662,14.802 -17.314,22.412 0,0 -19.655,-7.513 -34.276,-14.407 -3.152,-1.496 -8.4,-2.501 -10.27,-2.821 -0.428,-0.075 -0.684,-0.118 -0.684,-0.118 l -2.619,-18.907 -0.053,-0.352 c 3.794,-3.794 3.623,-13.563 4.702,-19.794 1.721,-13.958 19.89,-22.145 26.025,-30.684 4.809,19.409 2.533,42.152 2.533,42.152 0,0 -9.683,1.4 -12.686,5.269 -3.004,3.88 -2.052,10.292 -2.052,10.292 l 18.66,-9.437 -1.71,-13.541 4.2,-5.878 4.083,5.878 v 12.547 l 15.476,8.903 c 0,0 1.379,-7.599 -1.561,-10.41 -2.939,-2.8 -10.997,-3.473 -10.997,-3.473 0,0 -3.516,-22.135 -1.913,-41.095 3.602,9.299 14.642,17.945 16.459,32.983 v 0.01 c 0.481,2.576 1.859,11.34 2.95,20.286 v 0.042 l 1.4,9.598 c 0,0 -0.118,0.192 -0.353,0.545"
             style="fill:#3a3a3a;fill-opacity:1;fill-rule:nonzero;stroke:none"
             id="path39" /></g><g
           id="g41"
           transform="translate(256.4597,323.3824)"><path
             d="m 0,0 c -0.502,-1.454 -1.122,-3.099 -1.892,-4.959 -4.275,-10.324 -15.23,-18.522 -19.954,-20.392 -2.148,-0.855 -3.836,-0.93 -5.033,-0.759 -1.443,0.203 -2.181,0.759 -2.181,0.759 l -2.501,6.818 c 0.663,-0.053 1.326,-0.181 1.988,-0.373 0.032,0 0.054,-0.011 0.086,-0.022 6.37,-1.966 20.777,13.98 21.567,20.927 0.022,0.171 0.033,0.342 0.043,0.513 0.609,-0.203 1.229,-0.407 1.86,-0.61 C -4.115,1.293 -2.095,0.652 0,0"
             style="fill:#3a3a3a;fill-opacity:1;fill-rule:nonzero;stroke:none"
             id="path43" /></g><g
           id="g45"
           transform="translate(318.0956,422.7458)"><path
             d="M 0,0 -4.345,-13.429 -0.927,0.652 C -3.536,2.181 -11.55,4.88 -23.62,-9.095 h 0.011 c 0.729,0.25 1.484,0.465 2.251,0.662 1.861,1.989 8.888,8.676 17.15,6.269 0.457,-0.119 0.71,-0.221 0.71,-0.221 -0.238,0.084 -0.474,0.153 -0.71,0.221 -2.157,0.564 -8.973,1.51 -16.357,-6.072 1.251,0.284 2.543,0.499 3.881,0.616 3.036,0.096 9.662,-1.379 11.362,-8.593 l 6.124,-1.422 1.72,4.169 4.895,11.788 z"
             style="fill:#3a3a3a;fill-opacity:1;fill-rule:nonzero;stroke:none"
             id="path47" /></g><g
           id="g49"
           transform="translate(283.5583,389.9899)"><path
             d="m 0,0 c 11.801,5.789 31.737,11.958 31.737,11.958 6.422,-4.636 15.045,-16.526 17.474,-20.213 0.285,4.007 0.306,6.634 0,8.552 C 48.448,5.101 44.448,13.248 37.5,18.923 l -2.161,-3.802 -0.504,-0.503 -5.62,1.925 c 0,0 -4.649,11.168 -20.394,6.294 C -1.883,18.68 -7.59,9.807 -9.218,8.303 -10.057,7.543 -11.319,2.19 -12.53,-3.871 -8.564,-3.373 -4.076,-2 0,0"
             style="fill:#3a3a3a;fill-opacity:1;fill-rule:nonzero;stroke:none"
             id="path51" /></g><g
           id="g53"
           transform="translate(335.6162,457.545)"><path
             d="m 0,0 1.425,4.453 -5.878,-4.476 1.247,3.318 -6.002,-4.988 c -0.141,0.001 -0.289,0 -0.432,0 l 2.07,3.474 c 0,0 -6.793,-2.192 -20.943,-5.104 -0.099,-0.02 -0.176,-0.041 -0.272,-0.062 -2.688,-0.539 -5.336,-1.242 -7.842,-2.142 l 0.734,-19.678 -1.615,19.348 C -37.882,-6 -38.257,-6.145 -38.624,-6.298 l 0.282,-2.341 -0.623,2.19 c -4.884,-2.1 -9.018,-5.084 -11.457,-9.315 -2.101,-3.645 -3.884,-8.188 -5.527,-13.137 l 4.826,-8.15 -5.035,7.516 c -0.21,-0.642 -0.418,-1.289 -0.624,-1.943 l 7.196,-9.803 -7.321,9.405 c -3.588,-11.467 -6.632,-24.523 -11.127,-33.617 -5.797,-4.42 -16.399,-8.964 -16.399,-8.964 4.955,-0.139 8.493,0.371 10.985,1.044 -1.706,-1.65 -3.595,-2.801 -5.73,-3.271 0,0 1.7,-0.777 4.397,-1.757 -7.496,-2.822 -16.688,-4.121 -16.688,-4.121 9.726,-0.073 20.078,1.069 23.577,1.494 l 1.94,8.793 0.869,1.87 c 0,0 2.426,9.658 3.027,11.06 0.601,1.403 10.198,11.985 19.722,14.994 0.396,0.154 0.786,0.317 1.194,0.457 13.789,18.628 24.151,10.228 24.151,10.228 l 6.754,-1.419 9.395,28.983 v 0 l 1.285,3.964 c 0,0 -0.039,0.004 -0.061,0.007 l 1.041,3.378 z"
             style="fill:#3a3a3a;fill-opacity:1;fill-rule:nonzero;stroke:none"
             id="path55" /></g><g
           id="g57"
           transform="translate(327.0216,324.8206)"><path
             d="M 0,0 C 12.113,7.545 12.781,23.443 12.781,23.443 12.959,11.686 4.23,0.286 1.959,-1.896 c -2.267,-2.179 -14.7,-5.279 -14.741,-5.289 -0.175,-0.277 -0.346,-0.552 -0.515,-0.826 5.359,0.444 12.134,1.3 17.955,2.953 7.772,2.208 14.868,6.312 18.8,8.848 0.74,0.778 1.354,1.616 1.279,2.285 C 24.593,7.377 23.624,9.446 23.26,11.703 20.641,5.435 15.653,3.27 15.653,3.27 c 5.373,3.171 6.934,8.621 7.38,11.977 -0.262,3.882 -1.189,10.64 -3.038,12.193 -2.227,1.87 -3.474,3.751 -4.81,4.731 -1.336,0.98 0,3.474 -1.514,4.275 -1.406,0.745 -3.709,0.797 -4.032,0.801 0.264,-0.011 1.268,-0.155 1.271,-1.714 0.014,-6.579 -1.803,-11.756 -1.803,-11.756 1.803,8.249 0.467,13.471 0.467,13.471 0,0 0.802,1.425 0,1.959 C 9.05,39.557 6.205,40.515 4.122,41.211 3.361,35.344 2.537,29.895 2.001,26.628 1.869,24.694 1.745,23.202 1.591,22.374 V 22.363 C 0.308,11.746 -6.339,2.649 -11.405,-5.055 -9.762,-4.595 -4.955,-3.086 0,0"
             style="fill:#3a3a3a;fill-opacity:1;fill-rule:nonzero;stroke:none"
             id="path59" /></g><g
           id="g61"
           transform="translate(310.3169,318.6562)"><path
             d="M 0,0 C -0.008,3.516 0.122,7.093 0.364,10.578 -3.254,8.454 -6.796,8.78 -9.684,9.87 -9.862,7.742 -10.112,5.572 -10.408,3.398 -6.436,1.252 -1.791,0.303 0,0"
             style="fill:#3a3a3a;fill-opacity:1;fill-rule:nonzero;stroke:none"
             id="path63" /></g><g
           id="g65"
           transform="translate(257.9025,322.9442)"><path
             d="M 0,0 V -0.011 C 0.043,-0.021 0.075,-0.032 0.118,-0.043 0.075,-0.021 0.043,-0.011 0,0"
             style="fill:#3a3a3a;fill-opacity:1;fill-rule:nonzero;stroke:none"
             id="path67" /></g><g
           id="g69"
           transform="translate(235.9981,312.8604)"><path
             d="m 0,0 c 0,0 -3.384,-6.279 -5.834,-7.17 -1.308,-0.475 -2.943,-0.797 -4.186,-0.995 0.304,-0.065 0.608,-0.129 0.909,-0.219 0.026,0 0.046,-0.009 0.07,-0.018 0.783,0.051 1.849,0.232 3.296,0.653 4.587,1.336 13.983,13.672 15.141,15.72 0.889,1.573 1.016,3.535 1.028,4.364 -3.653,0.708 -10.001,2.265 -14.031,4.097 -2.394,1.088 -5.908,4.995 -9.228,9.255 l -11.012,1.5 h 9.861 c -3.498,4.629 -6.593,9.334 -7.65,11.06 -3.767,-4.777 -6.392,-8.658 -6.392,-8.658 0,0 -10.218,-8.365 -12.452,-10.663 -2.221,-2.285 -13.013,-17.571 -13.187,-19.055 0.208,0.083 0.428,0.168 0.642,0.253 l -0.001,0.001 c 0,0 9.251,5.085 17.311,3.705 6.428,-1.101 8.266,-12.162 8.748,-16.601 1.125,0.44 1.977,0.834 2.385,1.081 1.345,0.822 5.473,3.144 10.044,3.683 l -0.025,0.004 c 0,0 0.024,-10e-4 0.049,-10e-4 0.908,0.105 1.832,0.142 2.757,0.08 1.79,0.125 4.024,0.431 5.411,1.177 C -3.741,-5.344 0,0 0,0"
             style="fill:#3a3a3a;fill-opacity:1;fill-rule:nonzero;stroke:none"
             id="path71" /></g><g
           id="g73"
           transform="translate(340.2074,314.2126)"><path
             d="m 0,0 c -1.507,-6.766 -9.885,-22.779 -16.348,-25.622 -0.872,-0.384 -1.651,-0.84 -2.381,-1.323 1.435,-0.488 4.464,-1.427 5.766,-1.126 1.737,0.4 9.351,2.9 10.217,4.173 0.513,1.368 7.172,20.606 7.418,21.611 0.112,0.456 0.391,2.43 0.741,5.016 C 3.934,1.958 2.077,1.014 0,0"
             style="fill:#3a3a3a;fill-opacity:1;fill-rule:nonzero;stroke:none"
             id="path75" /></g><g
           id="g77"
           transform="translate(338.6053,276.292)"><path
             d="m 0,0 c -3.83,-2.138 -7.659,-5.878 -8.728,-10.064 -0.405,-1.585 -0.798,-3.004 -1.298,-4.387 3.317,-3.715 7.44,-8.149 9.498,-10.231 0.611,1.342 1.814,3.151 1.814,3.581 0,0.535 2.802,9.044 3.385,9.798 0.765,0.991 3.658,2.078 5.998,2.81 C 9.38,-6.091 7.78,-2.017 6.558,1.323 3.92,1.073 1.402,0.783 0,0"
             style="fill:#3a3a3a;fill-opacity:1;fill-rule:nonzero;stroke:none"
             id="path79" /></g><g
           id="g81"
           transform="translate(338.0457,291.96)"><path
             d="m 0,0 c -0.299,-0.853 -0.509,-1.445 -0.584,-1.645 -0.513,-1.379 -7.802,-4.729 -10.217,-5.243 -1.261,-0.268 -5.01,-0.397 -6.346,-0.333 -0.672,0.031 -1.488,0.112 -2.258,0.199 -0.661,-0.677 -1.217,-1.356 -1.695,-2.004 1.948,-0.054 6.083,-0.043 9.052,0.847 0,0 -5.489,-1.877 -10.043,-2.319 -0.444,-0.733 -0.759,-1.356 -0.946,-1.766 2.333,-3.258 6.203,-8.654 8.219,-11.421 0.069,0.24 0.133,0.481 0.187,0.721 1.113,4.988 3.828,11.801 8.727,14.562 2.328,1.313 6.256,1.63 9.933,1.998 C 2.824,-4.172 1.113,-1.439 0,0"
             style="fill:#3a3a3a;fill-opacity:1;fill-rule:nonzero;stroke:none"
             id="path83" /></g><g
           id="g85"
           transform="translate(202.1983,314.0333)"><path
             d="m 0,0 c -4.549,4.291 -13.632,1.193 -19.871,-1.304 -1.478,-2.388 -5.445,-10.196 -6.634,-14.804 -1.055,-4.092 -3.43,-37.587 -3.732,-46.471 0.004,0.007 1.028,1.871 3.34,4.183 2.315,2.315 9.151,4.564 12.535,4.119 2.606,-0.343 4.221,-3.45 5.064,-4.731 1.248,4.954 2.949,12.659 3.696,14.705 0.972,2.663 5.609,12.085 5.888,12.954 0.619,1.919 4.568,16.682 4.568,16.682 C 4.87,-13.531 4.912,-4.633 0,0"
             style="fill:#3a3a3a;fill-opacity:1;fill-rule:nonzero;stroke:none"
             id="path87" /></g><g
           id="g89"
           transform="translate(212.498,205.7353)"><path
             d="m 0,0 -18.743,29.898 c 0,-0.001 -0.001,-0.002 -0.001,-0.003 0,0.001 0.001,0.002 0.001,0.003 0,0 -0.441,1.745 -2.378,2.28 -1.937,0.534 -6.079,0.401 -7.081,-0.468 -1.002,-0.868 -1.87,-3.496 -1.87,-3.496 0,0 0.802,3.83 2.316,4.498 1.514,0.668 6.902,1.336 7.57,0.401 0.425,-0.595 1.172,-1.836 1.661,-2.662 0.591,1.514 1.545,4.117 1.545,5.134 0,1.469 -2.471,10.954 -2.949,12.412 v 0 c 0.016,0.061 0.033,0.13 0.05,0.192 -0.673,1.258 -2.062,3.473 -3.914,4.384 -2.655,1.308 -8.684,-1.024 -10.955,-1.825 -2.268,-0.801 -5.781,-5.019 -5.789,-5.03 -0.007,-0.197 -0.014,-0.398 -0.018,-0.57 v 0 c 0,0 -3.812,-22.589 -3.611,-23.457 0.2,-0.869 2.009,-2.878 2.453,-3.712 0.282,-0.53 10.36,-4.26 11.496,-4.059 0.785,0.138 3.056,1.94 4.389,3.044 l -3.042,6.73 3.653,-6.22 15.618,-27.683 -0.892,14.599 z"
             style="fill:#3a3a3a;fill-opacity:1;fill-rule:nonzero;stroke:none"
             id="path91" /></g><g
           id="g93"
           transform="translate(208.1656,197.9233)"><path
             d="M 0,0 H 1.514 L 28.055,-41.059 0,-1.336 Z m 14.913,3.384 -21.071,8.818 1.794,-29.391 34.742,-26.987 z"
             style="fill:#3a3a3a;fill-opacity:1;fill-rule:nonzero;stroke:none"
             id="path95" /></g><g
           id="g97"
           transform="translate(167.0152,283.8107)"><path
             d="M 0,0 C -0.215,-0.126 -0.823,-0.549 -1.716,-1.195 L 4.427,-11.202 C 5.098,-4.909 6.434,7.267 7.294,12.813 4.523,7.271 1.037,0.609 0,0"
             style="fill:#3a3a3a;fill-opacity:1;fill-rule:nonzero;stroke:none"
             id="path99" /></g><g
           id="g101"
           transform="translate(280.0886,322.5686)"><path
             d="m 0,0 c -11.807,3.437 -37.23,10.961 -41.107,13.137 -5.077,2.85 -22.889,26.006 -22.889,26.006 0,0 18.705,-19.751 23.39,-23.499 2.18,-1.744 10.34,-4.958 19.238,-8.152 C -5.377,2.295 -4.302,5.606 -2.363,3.762 -0.093,1.603 6.008,-1.737 6.008,-1.737 3.918,-1.16 1.912,-0.577 0,0 m -38.791,43.24 c 3.117,-1.157 8.194,-17.545 9.352,-23.334 0.84,-4.203 5.049,-7.27 7.299,-8.64 0.867,-0.514 1.429,-0.801 1.429,-0.801 0,0 -0.579,0.283 -1.429,0.801 -1.448,0.858 -3.746,2.348 -5.696,4.186 -3.117,2.94 -7.749,22.801 -11.133,25.388 -3.385,2.588 -15.765,6.052 -15.765,6.052 0,0 12.826,-2.494 15.943,-3.652 M 68.071,3.785 c 0,0 -24.389,-13.092 -30.683,-13.092 -1.825,0 -3.699,0.261 -5.445,0.628 -0.556,-1.04 -1.04,-2.053 -1.42,-3.033 -0.094,1.11 -0.145,2.259 -0.196,3.407 -3.505,0.897 -6.15,2.07 -6.15,2.07 0,0 2.425,0.015 6.075,0.235 -0.006,0.294 -0.006,0.591 -0.01,0.887 -2.799,0.487 -8.048,1.779 -10.725,2.453 -0.407,-2.601 -0.905,-5.194 -1.53,-7.716 C 13.985,-4.806 4.56,1.003 -1.99,8.243 l 0.003,-0.005 c -19.618,10.465 -26.139,30.905 -26.139,30.905 0,0 5.508,-15.314 21.602,-24.645 -1.139,2.115 -1.938,4.346 -2.23,6.721 -0.086,0.497 -0.169,1.033 -0.251,1.584 v -0.008 c -12.943,3.513 -16.248,13.042 -16.248,13.042 0,0 3.173,-8.823 15.764,-9.567 -0.816,5.99 -1.864,13.134 -4.765,16.035 l 0.089,0.668 1.619,8.769 c -4.398,-0.696 -9.956,-0.57 -14.555,-0.25 1.757,-0.857 4.237,-2.081 5.187,-2.618 1.537,-0.869 0.602,-3.407 1.67,-8.617 0.999,-4.869 4.103,-6.703 4.506,-6.923 -5.472,2.388 -6.513,12.137 -7.845,13.558 -1.082,1.153 -4.349,3.793 -5.556,4.758 -3.961,0.34 -6.802,0.764 -6.802,0.764 l 4.636,1.742 c -2.488,-0.127 -4.361,-0.146 -5.17,0.008 -3.919,0.744 -6.146,-4.155 -6.146,-4.155 0,0 -4.275,2.666 -5.522,2.402 -1.024,-0.217 -1.387,-2.415 -1.484,-3.195 3.439,3.158 10.279,-4.328 10.279,-4.328 -4.277,3.634 -10.309,4.052 -10.309,4.052 0,0 -9.975,0.891 -11.935,0.179 -1.959,-0.713 -1.781,-8.729 -4.275,-8.907 -1.018,-0.073 -2.723,0.141 -3.892,-0.152 -4.517,-1.001 -35.198,-10.418 -38.387,-12.628 -3.277,-2.272 -19.709,-36.696 -23.984,-38.454 -0.089,-0.037 -0.208,-0.088 -0.334,-0.143 l 9.457,-15.404 c 0,0 9.447,5.639 10.114,6.44 0.668,0.802 9.753,18.392 9.753,18.392 0,0 -8.645,-21.464 -9.933,-22.132 -1.034,-0.536 -6.752,-3.223 -8.973,-4.265 l 5.164,-8.411 c 2.365,1.638 3.981,2.791 4.346,3.19 1.245,1.364 5.964,8.983 8.979,13.924 2.448,5.326 6.724,14.205 8.121,15.735 1.87,2.048 7.392,10.954 11.133,14.161 3.741,3.206 10.688,8.995 11.757,10.242 0.433,0.507 1.629,2.081 2.895,3.771 -3.196,-1.608 -11.208,-5.597 -12.381,-5.775 -1.469,-0.222 -11.489,-1.291 -12.424,-2.761 -0.935,-1.469 -18.971,-29.792 -20.04,-30.059 -1.068,-0.267 -13.534,-4.27 -13.534,-4.27 l -1.711,2.787 c 0,0 15.334,6.85 17.65,9.199 2.316,2.348 17.635,25.683 19.95,26.574 2.316,0.89 24.969,7.636 24.969,7.636 v 0 c 0.429,0.579 0.792,1.07 1.037,1.402 -1.602,2.593 -4.274,6.654 -5.773,7.461 -2.235,1.202 -7.096,0.423 -7.096,0.423 0,0 8.239,1.692 10.376,-1.559 1.181,-1.795 3.815,-5.85 3.815,-5.85 5.655,-6.858 13.871,-17.145 18.808,-20.735 5.878,-4.275 71.251,-22.801 78.732,-22.979 7.482,-0.178 33.132,10.044 36.16,11.791 3.028,1.747 -0.83,5.666 -0.816,6.022"
             style="fill:#3a3a3a;fill-opacity:1;fill-rule:nonzero;stroke:none"
             id="path103" /></g><g
           id="g105"
           transform="translate(226.78,257.6853)"><path
             d="M 0,0 C -0.228,1.367 -0.11,6.057 -0.016,10.171 -7.78,6.844 -15.141,-4.008 -15.141,-4.008 -13.203,0.613 -3.163,11.34 0.064,14.72 0.068,15.735 0.052,16.494 0,16.833 c -0.127,0.824 -0.794,4.111 -1.536,7.369 -5.095,-8.26 -15.99,-26.214 -17.078,-30.433 -1.425,-5.526 1.334,-30.716 1.334,-30.716 0,0 -4.804,29.148 -2.446,37.055 1.883,6.313 12.126,24.311 16.183,31.317 -0.035,0.052 -0.069,0.092 -0.098,0.104 -0.703,0.267 -2.638,4.141 -4.241,4.804 -1.603,0.662 -8.15,4.414 -9.886,3.18 -1.737,-1.234 -3.607,-10.256 -3.741,-11.992 -0.134,-1.737 -4.141,-12.558 -5.21,-13.78 -0.818,-0.934 -4.369,-14.882 -5.994,-21.389 0.613,-2.78 1.919,-8.729 1.919,-8.985 0,-0.334 -1.737,-5.277 -1.737,-5.277 l 17.251,-26.164 c 1.937,2.764 1.709,7.721 2.313,8.75 1.687,2.875 4.462,7.791 10.6,8.02 0.203,0.895 0.402,1.847 0.597,2.829 v -10e-4 c 0,0 2.171,26.071 1.77,28.476"
             style="fill:#3a3a3a;fill-opacity:1;fill-rule:nonzero;stroke:none"
             id="path107" /></g><g
           id="g109"
           transform="translate(109.7498,282.5341)"><path
             d="m 0,0 c -0.896,-0.489 -2.238,-5.199 -3.665,-11.562 2.377,3.895 5.504,8.292 7.94,9.146 4.542,1.591 31.211,9.995 31.211,9.995 l -5.33,9.976 C 30.156,17.555 2.939,1.603 0,0"
             style="fill:#3a3a3a;fill-opacity:1;fill-rule:nonzero;stroke:none"
             id="path111" /></g><g
           id="g113"
           transform="translate(102.5356,177.3941)"><path
             d="m 0,0 c -2.137,4.141 -20.841,26.586 -21.91,32.731 -1.069,6.145 10.154,54.487 10.154,54.487 0,0 -10.078,-50.914 -8.016,-54.487 C -17.71,29.158 0.534,10.821 2.939,4.542 5.344,-1.737 6.68,-35.937 6.68,-35.937 6.68,-35.937 2.138,-4.141 0,0 m 28.66,-5.039 c -9.804,16.43 -31.551,53.122 -33.202,58.077 -2.138,6.412 2.672,49.163 5.076,53.379 2.405,4.215 36.075,17.701 36.075,17.701 L 34.14,128.74 C 19.006,121.116 -6.016,107.389 -9.886,99.262 -15.23,88.04 -29.391,28.723 -28.589,20.975 c 0.801,-7.749 26.719,-48.897 22.978,-56.912 0,0 4.097,-4.988 9.975,-6.057 5.878,-1.069 21.019,13.004 24.047,16.922 3.029,3.919 0.179,19.595 0.179,19.595 0,0 0.024,0.157 0.07,0.438"
             style="fill:#3a3a3a;fill-opacity:1;fill-rule:nonzero;stroke:none"
             id="path115" /></g><g
           id="g117"
           transform="translate(183.3149,218.8483)"><path
             d="m 0,0 c -0.942,-1.723 -1.583,-1.743 -2.937,-1.696 -2.138,0.075 -12.782,5.887 -12.782,5.887 0,0 -1.379,4.542 -1.468,4.899 -0.074,0.292 1.958,13.393 2.684,18.052 l -4.803,8.989 c -0.508,-7.056 -1.622,-22.912 -1.622,-26.418 0,-4.542 25.172,-48.208 25.172,-48.208 0,0 -26.508,43.131 -27.31,46.759 -0.633,2.868 -0.265,25.643 -0.083,35.06 l -6.253,11.701 c -8.631,-6.931 -18.573,-15.642 -20.036,-19.813 -2.084,-5.935 3.159,-40.635 5.23,-53.625 4.61,-5.284 9.952,-11.318 13.239,-15.019 1.104,-0.9 1.929,-1.539 2.292,-1.61 1.603,-0.311 27.636,-8.708 34.019,-7.283 2.648,0.592 7.171,6.891 11.918,14.232 z"
             style="fill:#3a3a3a;fill-opacity:1;fill-rule:nonzero;stroke:none"
             id="path119" /></g><g
           id="g121"
           transform="translate(130.0564,207.7203)"><path
             d="m 0,0 c -5.611,8.817 -20.841,54.774 -20.841,54.774 0,0 17.902,-47.56 21.643,-52.369 1.187,-1.527 4.099,-4.926 7.519,-8.853 -10e-4,0.003 -11.527,50.692 -9.39,57.427 1.199,3.775 12.586,12.264 22.691,19.356 l -5.539,10.366 c 0,0 -24.633,-9.895 -31.046,-10.806 -3.457,-0.492 -6.834,-4.231 -9.215,-7.575 -3.2,-14.55 -6.731,-36.733 -6.549,-38.006 0.207,-1.451 22.143,-41.37 31.953,-59.168 0.608,3.528 2.982,15.915 6.79,18.979 0.619,0.499 1.358,0.701 2.171,0.693 C 6.654,-10.055 2.63,-4.133 0,0"
             style="fill:#3a3a3a;fill-opacity:1;fill-rule:nonzero;stroke:none"
             id="path123" /></g><g
           id="g125"
           transform="translate(253.7766,128.6096)"><path
             d="m 0,0 c 0,0 -0.86,-2.249 -1.36,-3.749 -0.5,-1.5 -5.417,-12.5 -5.292,-14.25 0.125,-1.75 2.875,-5.5 2.875,-6.25 0,-0.75 -0.504,-3.75 -2.877,-5.25 -2.373,-1.5 -10.248,-0.125 -13.248,2.5 -3,2.625 -6.041,7.625 -6.041,9.25 0,1.625 2.291,15.75 2.291,15.75 L -19.731,9.64 -2.402,5.682 Z"
             style="fill:#3a3a3a;fill-opacity:1;fill-rule:nonzero;stroke:none"
             id="path127" /></g><g
           id="g129"
           transform="translate(358.153,243.973)"><path
             d="m 0,0 c -1.603,-2.586 -5.974,-4.906 -7.663,-4.457 -1.689,0.449 -10.335,2.758 -10.688,3.741 -0.353,0.983 -2.319,6.231 -2.052,7.481 0.054,0.246 0.182,0.545 0.332,0.877 -0.013,0.012 -0.03,0.03 -0.042,0.042 l 0.037,-0.047 -9.964,8.948 c -0.72,-1.648 -1.809,-3.577 -3.169,-5.484 -0.146,-0.215 -0.233,-0.335 -0.233,-0.335 0.085,0.115 0.151,0.221 0.233,0.335 0.64,0.95 2.43,3.777 3.063,6.612 0.046,0.205 0.099,0.418 0.15,0.63 1.195,4.916 3.88,11.284 8.577,13.932 1.977,1.114 5.108,1.51 8.259,1.829 1.153,0.117 2.307,0.225 3.409,0.353 3.35,0.388 6.326,1.202 6.326,1.202 0,0 -2.239,-1.128 -5.057,-1.536 -0.98,-0.142 -2.034,-0.247 -3.096,-0.347 1.159,-4.22 2.696,-9.953 2.696,-9.953 1.465,0.459 2.704,0.78 3.079,0.844 C -4.81,24.849 0.62,23.78 1.24,23.598 1.87,23.417 7.834,14.161 8.454,12.825 9.084,11.489 1.603,2.576 0,0 m 38.392,112.525 c -12.023,5.998 -28.105,0.837 -44.014,-12.236 0.201,-2.078 0.364,-3.909 0.364,-4.415 0,-1.336 -0.996,-3.607 -0.565,-5.144 0.431,-1.536 3.036,-6.679 1.433,-7.748 -1.603,-1.069 -2.872,-1.47 -2.872,-1.47 0,0 3.807,-5.167 2.07,-6.591 -1.736,-1.424 -5.277,-2.084 -5.277,-2.084 0,0 0.468,-4.484 0.268,-5.953 -0.124,-0.904 -5.089,-10.564 -8.9,-17.879 0.54,-0.862 2.723,-4.362 4.394,-7.276 0.12,0.013 0.245,0.025 0.364,0.038 2.322,0.269 4.463,0.743 5.559,1.008 l 0.767,0.195 4.592,-5.611 -5.262,5.311 c -0.864,-0.363 -2.484,-0.961 -4.387,-1.236 -0.875,-0.127 -1.809,-0.225 -2.755,-0.316 h -0.002 c -3.226,-0.31 -6.597,-0.533 -8.309,-1.488 -3.83,-2.138 -7.659,-5.878 -8.728,-10.064 -0.527,-2.064 -1.035,-3.847 -1.785,-5.636 l -0.001,-0.003 c -0.731,-1.74 -1.763,-3.585 -3.204,-5.604 -0.014,-0.022 3.565,-6.347 3.565,-6.347 l -4.275,5.967 c 0.084,0.116 0.643,0.368 0.724,0.482 0.5,0.741 1.586,2.228 2.389,4.367 l -9.081,8.154 c 0,0 -4.742,-5.01 -4.943,-7.882 -0.2,-2.872 -1.402,-8.304 -0.801,-9.615 0.601,-1.311 10.211,-29.929 10.917,-35.407 2.67,-6.888 4.412,-25.144 5.25,-36.051 22.415,0.281 52.074,26.664 71.686,65.98 23.156,46.418 23.523,93.228 0.819,104.554"
             style="fill:#3a3a3a;fill-opacity:1;fill-rule:nonzero;stroke:none"
             id="path131" /></g><g
           id="g133"
           transform="translate(404.4735,359.742)"><path
             d="m 0,0 c -14.67,7.609 -33.81,3.005 -52.446,-10.493 0.08,-0.775 0.173,-1.673 0.266,-2.599 16.334,12.678 32.878,17.44 45.469,11.16 24.279,-12.112 24.658,-60.626 0.846,-108.358 -19.971,-40.036 -50.606,-66.768 -74.295,-67.212 0.207,-2.976 0.311,-4.846 0.311,-4.846 l -1.472,-3.401 c 26.97,-1.683 61.915,25.801 84.153,68.665 C 28.942,-66.787 27.67,-14.364 0,0"
             style="fill:#3a3a3a;fill-opacity:1;fill-rule:nonzero;stroke:none"
             id="path135" /></g><g
           id="g137"
           transform="translate(253.75,184.5276)"><path
             d="m 0,0 c -6.103,3.398 -15.743,3.425 -23.13,0.352 l 9.005,-33.769 -24.652,19.132 -1.056,-1.215 c 0,0 -6.698,-23.132 -6.862,-24.026 -1.227,-6.663 -20.236,-48.916 -20.845,-53.149 -0.609,-4.234 5.681,-8.589 9.288,-9.466 4.396,-1.069 12.394,-2.211 13.905,2.563 1.644,5.196 37.716,52.206 38.977,54.664 1.218,2.373 9.044,12.067 10.495,15.747 0.941,1.252 2.947,6.088 3.292,7.084 C 10.897,-14.912 6.799,-3.786 0,0"
             style="fill:#3a3a3a;fill-opacity:1;fill-rule:nonzero;stroke:none"
             id="path139" /></g><g
           id="g141"
           transform="translate(272.75,200.861)"><path
             d="M 0,0 C 0.765,2.131 2.029,5.312 2.57,7.224 2.66,5.005 2.75,4.393 3.25,2.167 3.874,-0.61 5.271,-10.036 7,-17.667 c -2.674,-0.567 -6.092,-2.694 -9.417,-5.8 -0.258,-0.241 -2.705,-2.737 -6.116,-6.299 C -6.162,-21.148 -1.308,-3.643 0,0 m 23.843,-17.351 c -0.175,-0.029 -0.364,-0.055 -0.531,-0.086 0,0 0.194,0.033 0.531,0.086 m 17.24,121.869 c -9.025,0.607 -48.972,14.103 -56.235,16.578 -0.543,-1.753 -1.295,-4.024 -2.05,-5.79 -1.205,-2.814 -10.495,-12.75 -16.19,-16.885 0.94,-1.013 3.353,-3.137 7.207,-3.34 5.077,-0.268 25.784,1.711 28.456,1.523 0,0 -26.919,-3.056 -29.257,-2.891 -2.045,0.145 -7.36,2.667 -8.661,3.297 -0.152,-0.075 -0.298,-0.141 -0.437,-0.196 -3.846,-1.524 -6.391,-1.156 -7.202,-0.967 -0.387,-2.065 -0.287,-4.654 -0.19,-6.425 0.186,-3.385 2.127,-11.179 2.115,-11.69 -0.149,-6.698 -1.42,-19.227 -1.762,-22.231 0,-10e-4 0,-10e-4 0,-0.002 -0.785,-3.81 -1.719,-8.545 -1.779,-9.076 -0.059,-0.531 -1.656,-13.168 -3.493,-21.162 -0.736,-3.202 -1.396,-12.461 -1.811,-21.846 l 3.081,-0.665 4.704,-17.641 c 7.508,2.86 17.392,2.582 23.421,-0.774 4.704,-2.62 8.201,-9.134 8.981,-15.657 -7.548,-7.921 -18.471,-19.675 -21.992,-24.808 -0.723,-0.728 -1.458,-1.455 -2.228,-2.178 -1.447,-1.359 -3.41,-2.821 -4.466,-4.304 6.025,-7.155 19.488,-9.795 19.732,-9.639 4.214,2.682 53.458,30.081 57.466,33.287 3.383,2.706 8.539,8.772 10.071,10.605 v 0 c 0.231,0.259 0.425,0.513 0.6,0.764 l 0.961,1.845 c 0,0 -0.625,5.875 -4.375,7.375 -3.477,1.391 -14.469,2.027 -20.984,1.166 4.222,0.623 16.527,2.143 21.359,-0.478 2.104,-1.142 3.332,-3.175 4.044,-5.312 0.154,21.42 -4.761,37.249 -5.794,41.874 -1.125,5.039 -7.617,23.278 -7.969,24.93 -0.353,1.653 -2.241,11.18 -3.636,12.327 C 32.745,55.911 32.638,55.66 32.497,55.396 28.375,51.458 15.125,42.306 9.333,42.417 c -7.249,0.138 -29.907,4.686 -46.73,18.291 2.832,-2.215 21.82,-16.303 47.189,-16.558 0.22,-0.002 0.437,0.003 0.656,0.004 -0.273,0.445 -0.486,1.054 -0.503,1.603 -0.043,1.401 -0.578,12.739 0.604,16.074 1.182,3.335 1.716,6.15 1.979,7.496 0.263,1.346 1.936,3.539 2.943,4.904 0.8,1.085 1.205,4.026 1.337,5.188 0.011,0.202 0.027,0.371 0.052,0.486 0,0 -0.017,-0.187 -0.052,-0.486 -0.063,-1.269 0.122,-4.005 -0.012,-5.099 -0.156,-1.27 -2.92,-3.421 -3.373,-4.261 -0.453,-0.84 -1.12,-3.565 -1.199,-5.645 -0.079,-2.081 -2.07,-6.211 -1.535,-7.664 0.531,-1.442 0.519,-10.583 0.962,-12.572 9.128,0.317 19.057,10.697 21.187,12.671 0.383,4.484 0.477,14.302 6.293,21.484 0.537,0.664 5.639,6.198 8.449,8.505 -0.397,0.048 -0.752,0.167 -1.023,0.391 -1.537,1.269 -12.316,7.297 -12.316,7.297 1.537,-0.468 11.514,-5.561 13.518,-6.295 0.582,-0.214 1.202,-0.198 1.791,-0.074 3.584,2.266 7.739,6.811 10.662,11.017 1.401,2.021 4.544,7.395 6.758,13.939 -8.304,-4.026 -19.909,-8.997 -25.887,-8.595"
             style="fill:#3a3a3a;fill-opacity:1;fill-rule:nonzero;stroke:none"
             id="path143" /></g></g></g></g></svg>
